<svg width="2002" height="670" viewBox="0 0 2002 670" fill="none" xmlns="http://www.w3.org/2000/svg">
<rect width="2002" height="670" fill="white"/>
<g clip-path="url(#clip0_934_26824)">
<path d="M731.51 248.939H694.461V429.251H731.51V248.939Z" fill="#12C96E"/>
<path d="M779.667 238.645C774.221 238.645 769.513 240.506 765.572 244.229C761.63 247.952 759.652 252.436 759.652 257.653C759.652 262.871 761.602 267.341 765.516 271.035C769.43 274.73 774.138 276.577 779.653 276.577C785.169 276.577 789.877 274.716 793.79 270.993C797.704 267.27 799.654 262.786 799.654 257.569C799.654 252.351 797.69 247.881 793.79 244.187C789.877 240.492 785.169 238.645 779.653 238.645H779.667Z" fill="#12C96E"/>
<path d="M798.111 294.02H761.062V429.251H798.111V294.02Z" fill="#12C96E"/>
<path d="M928.978 298.42C922.083 294.316 913.991 292.258 904.715 292.258C894.798 292.258 886.371 294.556 879.407 299.167C872.443 303.778 867.499 310.011 864.532 317.88H862.972V294.02H827.664V429.251H864.713V351.074C864.769 345.264 865.855 340.286 867.972 336.155C870.089 332.023 873.042 328.864 876.844 326.693C880.647 324.521 885.034 323.435 890.02 323.435C897.444 323.435 903.266 325.762 907.5 330.43C911.735 335.097 913.824 341.57 913.768 349.847V429.265H950.817V343.163C950.817 332.658 948.909 323.605 945.079 316.004C941.248 308.404 935.886 302.552 928.992 298.434L928.978 298.42Z" fill="#12C96E"/>
<path d="M1065.61 371.676C1065.66 377.725 1064.49 382.802 1062.08 386.905C1059.67 391.009 1056.53 394.111 1052.65 396.198C1048.77 398.285 1044.59 399.328 1040.13 399.328C1033.11 399.328 1027.53 397.016 1023.35 392.376C1019.17 387.737 1017.05 381.434 1017 373.452V294.034H979.949V380.136C980.005 390.698 981.927 399.765 985.729 407.338C989.532 414.91 994.825 420.748 1001.59 424.851C1008.38 428.955 1016.23 431.014 1025.16 431.014C1035.19 431.014 1043.7 428.602 1050.68 423.794C1057.67 418.985 1062.67 412.612 1065.68 404.687H1067.07V429.251H1102.64V294.02H1065.59V371.676H1065.61Z" fill="#12C96E"/>
<path d="M1250.82 294.02H1212.82L1187.69 341.302L1163.17 294.02H1124.9L1163.17 361.636L1123.51 429.251H1161.77L1187.69 382.505L1214.03 429.251H1251.86L1212.12 361.636L1250.82 294.02Z" fill="#12C96E"/>
<path d="M1424.75 292.258C1414.94 292.258 1406.47 294.584 1399.32 299.252C1392.16 303.919 1387.21 310.124 1384.48 317.88H1383.09C1380.94 310.011 1376.65 303.778 1370.22 299.167C1363.78 294.556 1355.98 292.258 1346.83 292.258C1337.68 292.258 1330.02 294.542 1323.53 299.125C1317.04 303.708 1312.4 309.955 1309.62 317.88H1308.06V294.02H1272.75V429.251H1309.8V348.07C1309.8 343.078 1310.76 338.721 1312.67 334.998C1314.58 331.276 1317.18 328.371 1320.45 326.284C1323.73 324.197 1327.42 323.153 1331.54 323.153C1337.63 323.153 1342.54 325.128 1346.28 329.048C1350.01 332.982 1351.89 338.27 1351.89 344.898V429.237H1387.81V346.66C1387.81 339.61 1389.69 333.941 1393.47 329.626C1397.24 325.311 1402.48 323.153 1409.2 323.153C1415.12 323.153 1420.04 325.029 1423.98 328.794C1427.92 332.545 1429.9 338.185 1429.9 345.701V429.251H1466.87V338.298C1466.87 323.619 1462.97 312.281 1455.17 304.272C1447.37 296.262 1437.24 292.258 1424.78 292.258H1424.75Z" fill="#12C96E"/>
<path d="M1514.66 238.645C1509.21 238.645 1504.51 240.506 1500.56 244.229C1496.62 247.952 1494.64 252.436 1494.64 257.653C1494.64 262.871 1496.59 267.341 1500.51 271.035C1504.42 274.73 1509.13 276.577 1514.65 276.577C1520.16 276.577 1524.87 274.716 1528.78 270.993C1532.7 267.27 1534.65 262.786 1534.65 257.569C1534.65 252.351 1532.68 247.881 1528.78 244.187C1524.87 240.492 1520.16 238.645 1514.65 238.645H1514.66Z" fill="#12C96E"/>
<path d="M1533.1 294.02H1496.05V429.251H1533.1V294.02Z" fill="#12C96E"/>
<path d="M1663.97 298.42C1657.08 294.316 1648.98 292.258 1639.71 292.258C1629.79 292.258 1621.36 294.556 1614.4 299.167C1607.44 303.778 1602.49 310.011 1599.52 317.88H1597.96V294.02H1562.66V429.251H1599.71V351.074C1599.76 345.264 1600.85 340.286 1602.96 336.155C1605.08 332.023 1608.03 328.864 1611.84 326.693C1615.64 324.521 1620.03 323.435 1625.01 323.435C1632.44 323.435 1638.26 325.762 1642.49 330.43C1646.73 335.097 1648.82 341.57 1648.76 349.847V429.265H1685.81V343.163C1685.81 332.658 1683.9 323.605 1680.07 316.004C1676.24 308.404 1670.88 302.552 1663.98 298.434L1663.97 298.42Z" fill="#12C96E"/>
<path d="M1782.54 399.681C1781.61 399.85 1780.3 400.104 1778.59 400.428C1776.85 400.753 1775.1 400.908 1773.36 400.908C1770.87 400.908 1768.68 400.527 1766.8 399.765C1764.92 399.004 1763.46 397.664 1762.42 395.761C1761.37 393.857 1760.86 391.164 1760.86 387.709V322.209H1785.98V294.034H1760.86V261.63H1723.81V294.034H1705.55V322.209H1723.81V392.644C1723.75 401.514 1725.58 408.847 1729.28 414.656C1732.99 420.466 1738.19 424.753 1744.89 427.517C1751.59 430.281 1759.41 431.479 1768.34 431.127C1773.15 430.957 1777.24 430.464 1780.59 429.674C1781.29 429.505 1781.93 429.35 1782.56 429.195V399.695L1782.54 399.681Z" fill="#12C96E"/>
<path d="M564.497 170H434.631C418.14 170 402.387 176.994 402.011 198.259C401.468 228.097 385.52 236.854 368.597 236.854H249.01C230.778 236.854 216 251.815 216 270.274V466.366C216 484.824 230.778 499.786 249.01 499.786H442.709C460.941 499.786 475.719 484.824 475.719 466.366V401.74C475.719 383.281 490.497 368.32 508.729 368.32H564.497C582.729 368.32 597.507 353.358 597.507 334.9V203.42C597.507 184.961 582.729 170 564.497 170Z" fill="#12C96E"/>
<path d="M246.609 467.028V340.23H273.087V444.932H326.78V467.028H246.609Z" fill="white"/>
<path d="M431.655 200.825H464.316L498.802 286.025H500.265L534.751 200.825H567.412V327.624H541.729V245.089H540.684L508.273 327.003H490.78L458.369 244.779H457.324V327.624H431.641V200.825H431.655Z" fill="white"/>
</g>
<defs>
<clipPath id="clip0_934_26824">
<rect width="1569.98" height="329.8" fill="white" transform="translate(216 170)"/>
</clipPath>
</defs>
</svg>
