<svg width="670" height="670" viewBox="0 0 670 670" fill="none" xmlns="http://www.w3.org/2000/svg">
<rect width="670" height="670" fill="white"/>
<path d="M537.509 123.098H370.123C348.868 123.098 328.564 132.106 328.079 159.494C327.379 197.924 306.824 209.202 285.012 209.202H130.875C107.375 209.202 88.3281 228.472 88.3281 252.246V504.802C88.3281 528.576 107.375 547.846 130.875 547.846H380.536C404.035 547.846 423.082 528.576 423.082 504.802V421.567C423.082 397.794 442.129 378.524 465.629 378.524H537.509C561.009 378.524 580.056 359.254 580.056 335.481V166.141C580.056 142.367 561.009 123.098 537.509 123.098Z" fill="#535353"/>
<path d="M127.789 505.656V342.346H161.916V477.197H231.122V505.656H127.789Z" fill="white"/>
<path d="M366.284 162.799H408.381L452.831 272.532H454.716L499.166 162.799H541.263V326.109H508.16V219.809H506.813L465.038 325.31H442.491L400.716 219.409H399.369V326.109H366.266V162.799H366.284Z" fill="white"/>
</svg>
